:SAMPLES-PER-SECOND 30
:FULLY-SPECIFIED
:DEGREES
154
root  3.973666514 35.67088871 -0.1643646655 -120.3939819 -83.59980011 113.6099854
lowerback  15.59179974 2.568939924 -2.567549944
upperback  6.703430176 2.684469938 1.053249955
thorax  -1.795600057 1.126289964 2.10416007
lowerneck  -3.256020069 7.641990185 -0.6425759792
upperneck  10.83650017 10.48320007 -2.523080111
head  4.253719807 4.986470222 -0.2350620031
lclavicle  0 -9.442270133e-015 7.951389973e-016
lhumerus  4.249030113 -10.30020046 82.09449768
lradius  2.597748511e-031 -2.391766442e-031 137.3639984
lwrist  -3.531125038e-031 -0 1.109369993
lhand  -1.496451383e-031 -27.76390076 20.11240005
lfingers  90 7.125020027 -90
lthumb  89.89689403 5.08795885 91.16245106
rclavicle  0 -9.442270133e-015 7.951389973e-016
rhumerus  30.97089958 32.3105011 -73.37400055
rradius  -2.104107297e-031 2.83576736e-031 126.5749969
rwrist  7.062250077e-031 -1.765562519e-031 -8.197879791
rhand  -7.920061211e-032 -33.2840004 9.303460121
rfingers  -90 -7.125020027 -90
rthumb  -92.93752616 -24.25625642 -97.11982154
rfemur  -16.74370003 19.99909973 -0.3094849885
rtibia  -0 0 65.70850372
rfoot  -0 -33.85089874 -13.55340004
rtoes  5.373923086 19.29304026 -105.8922705
lfemur  -23.88159943 -6.881569862 -7.255440235
ltibia  -0 0 71.32180023
lfoot  9.110049398e-032 -14.29920006 6.883739948
ltoes  -4.250644065 -19.5611806 -102.515957
155
root  4.167599941 35.88444567 -0.205719776 -122.1779785 -83.66020203 115.6420288
lowerback  16.00769997 2.502569914 -2.790659904
upperback  6.895440102 2.538170099 1.29550004
thorax  -1.823040009 1.034440041 2.501549959
lowerneck  -3.258369923 7.715000153 -0.8013830185
upperneck  10.74100018 10.58300018 -2.463959932
head  4.206729889 5.034989834 -0.1872369945
lclavicle  0 -9.442270133e-015 7.951389973e-016
lhumerus  4.832660198 -10.1697998 82.22190094
lradius  2.599960218e-031 -2.389362028e-031 137.4170074
lwrist  0 -0 1.127949953
lhand  -1.496451383e-031 -27.76390076 20.11240005
lfingers  90 7.125020027 -90
lthumb  89.89689403 5.08795885 91.16245106
rclavicle  0 -9.442270133e-015 7.951389973e-016
rhumerus  30.93569946 32.29320145 -73.02670288
rradius  -2.096378613e-031 2.841485659e-031 126.4189987
rwrist  7.062250077e-031 -3.531125038e-031 -8.84706974
rhand  -7.920061211e-032 -33.2840004 9.303460121
rfingers  -90 -7.125020027 -90
rthumb  -92.93752616 -24.25625642 -97.11982154
rfemur  -17.22769928 19.45470047 -0.3816680014
rtibia  -0 0 64.9673996
rfoot  -0 -32.96369934 -12.80249977
rtoes  5.373923086 19.29304026 -105.8922705
lfemur  -25.30130005 -7.051400185 -7.162970066
ltibia  -0 0 72.06900024
lfoot  -0 -11.38930035 7.157680035
ltoes  -4.250644065 -19.5611806 -102.515957
156
root  4.361644505 36.11688989 -0.2368066724 -125.7659912 -83.82160187 119.6030273
lowerback  16.41990089 2.438560009 -2.709969997
upperback  7.020860195 2.440479994 1.473670006
thorax  -1.905019999 0.9756190181 2.652299881
lowerneck  -3.397389889 7.781899929 -0.7599049807
upperneck  10.76379967 10.66320038 -2.354589939
head  4.238239765 5.080080032 -0.1475230008
lclavicle  0 -9.442270133e-015 7.951389973e-016
lhumerus  5.477600098 -10.03040028 82.10289764
lradius  2.603668132e-031 -2.385321005e-031 137.5059967
lwrist  -7.062250077e-031 -3.531125038e-031 1.352640033
lhand  -1.496451383e-031 -27.76390076 20.11240005
lfingers  90 7.125020027 -90
lthumb  89.89689403 5.08795885 91.16245106
rclavicle  0 -9.442270133e-015 7.951389973e-016
rhumerus  30.84469986 32.3429985 -72.7736969
rradius  -2.082218849e-031 2.851878101e-031 126.1340027
rwrist  1.412450015e-030 -1.765562519e-031 -8.546879768
rhand  -7.920061211e-032 -33.2840004 9.303460121
rfingers  -90 -7.125020027 -90
rthumb  -92.93752616 -24.25625642 -97.11982154
rfemur  -17.79579926 19.1378994 -0.3252930045
rtibia  -0 0 64.06169891
rfoot  -0 -31.79590034 -12.17199993
rtoes  5.373923086 19.29304026 -105.8922705
lfemur  -26.84480095 -7.047939777 -6.906260014
ltibia  -0 0 72.72070313
lfoot  -0 -8.245619774 7.630859852
ltoes  -4.250644065 -19.5611806 -102.515957
157
root  4.545666852 36.37155548 -0.2517844514 -130.5739746 -83.86620331 124.7509766
lowerback  16.87849998 2.507369995 -2.520100117
upperback  7.13365984 2.530380011 1.550500035
thorax  -2.027659893 1.01391995 2.599289894
lowerneck  -3.562930107 7.749300003 -0.4463700056
upperneck  10.85610008 10.59459972 -2.268650055
head  4.317560196 5.059740067 -0.1640409976
lclavicle  0 -9.442270133e-015 7.951389973e-016
lhumerus  6.242459774 -10.21990013 81.89779663
lradius  2.606705051e-031 -2.38200185e-031 137.5789948
lwrist  -7.062250077e-031 -3.531125038e-031 1.800169945
lhand  -1.496451383e-031 -27.76390076 20.11240005
lfingers  90 7.125020027 -90
lthumb  89.89689403 5.08795885 91.16245106
rclavicle  0 -9.442270133e-015 7.951389973e-016
rhumerus  30.60829926 32.22460175 -72.52539825
rradius  -2.061207432e-031 2.867100968e-031 125.7129974
rwrist  7.062250077e-031 1.765562519e-031 -7.350619793
rhand  -7.920061211e-032 -33.2840004 9.303460121
rfingers  -90 -7.125020027 -90
rthumb  -92.93752616 -24.25625642 -97.11982154
rfemur  -18.29940033 19.03210068 -0.358889997
rtibia  -0 0 62.99309921
rfoot  -0 -30.48810005 -11.12629986
rtoes  5.373923086 19.29304026 -105.8922705
lfemur  -28.2336998 -6.834139824 -6.746550083
ltibia  -0 0 73.22940063
lfoot  -0 -5.473889828 8.414970398
ltoes  -4.250644065 -19.5611806 -102.515957
